<svg xmlns="http://www.w3.org/2000/svg" xmlns:xlink="http://www.w3.org/1999/xlink" viewBox="0 0 91 109"><defs><style>.cls-1{isolation:isolate;}.cls-2{fill:#388e3c;}.cls-3,.cls-4,.cls-5,.cls-6{opacity:0.7;mix-blend-mode:multiply;}.cls-3{fill:url(#linear-gradient);}.cls-4{fill:url(#linear-gradient-2);}.cls-5{fill:url(#linear-gradient-3);}.cls-6{fill:url(#linear-gradient-4);}</style><linearGradient id="linear-gradient" x1="79.89" y1="71.83" x2="57.48" y2="94.24" gradientUnits="userSpaceOnUse"><stop offset="0.46" stop-color="#fff"/><stop offset="0.54" stop-color="#fcfcfc"/><stop offset="0.61" stop-color="#f1f1f1"/><stop offset="0.68" stop-color="#dfdfdf"/><stop offset="0.74" stop-color="#c6c6c6"/><stop offset="0.8" stop-color="#a5a5a5"/><stop offset="0.86" stop-color="#7d7d7d"/><stop offset="0.92" stop-color="#4e4e4e"/><stop offset="0.98" stop-color="#181818"/><stop offset="1"/></linearGradient><linearGradient id="linear-gradient-2" x1="74.64" y1="35.7" x2="61.98" y2="13.77" xlink:href="#linear-gradient"/><linearGradient id="linear-gradient-3" x1="44.57" y1="107.96" x2="20.49" y2="66.24" xlink:href="#linear-gradient"/><linearGradient id="linear-gradient-4" x1="52.7" y1="1.11" x2="12.27" y2="41.54" xlink:href="#linear-gradient"/></defs><title>Artboard 1</title><g class="cls-1"><g id="OBJECTS"><polygon class="cls-2" points="48.21 84.98 64.09 95.86 89.16 81.1 69.94 71.35 48.21 84.98"/><polygon class="cls-2" points="48.21 84.98 20.82 66.05 21 66.06 21 66.33 11.78 71.65 0.93 78.31 45.74 107.29 64.11 95.86 48.21 84.98"/><polygon class="cls-2" points="21 64.94 21 43.48 21 42.36 11.9 36.77 1 30.38 1 33.73 1 74.69 1 78.03 11.9 71.65 21 66.06 21 64.94"/><polygon class="cls-2" points="21 66.06 11.98 71.65 21 66.33 21 66.06"/><polygon class="cls-2" points="21 42.09 11.98 36.77 21 42.36 21 42.09"/><polygon class="cls-2" points="48.21 23.44 69.94 37.07 89.16 27.32 64.09 12.55 48.21 23.44"/><polygon class="cls-2" points="45.7 1.13 0.83 30.11 11.78 36.77 21 42.09 21 42.36 20.82 42.37 48.31 23.44 64.14 12.55 45.7 1.13"/><polygon class="cls-3" points="48.21 84.98 64.09 95.86 89.16 81.1 69.94 71.35 48.21 84.98"/><polygon class="cls-2" points="21 66.06 11.98 71.65 21 66.33 21 66.06"/><polygon class="cls-2" points="21 42.09 11.98 36.77 21 42.36 21 42.09"/><polygon class="cls-4" points="48.21 23.44 69.94 37.07 89.16 27.32 64.09 12.55 48.21 23.44"/><polygon class="cls-5" points="48.21 84.98 20.82 66.05 21 66.06 21 66.33 11.78 71.65 0.93 78.31 45.74 107.29 64.11 95.86 48.21 84.98"/><polygon class="cls-2" points="21 64.94 21 43.48 21 42.36 11.9 36.77 1 30.38 1 33.73 1 74.69 1 78.03 11.9 71.65 21 66.06 21 64.94"/><polygon class="cls-6" points="45.7 1.13 0.83 30.11 11.78 36.77 21 42.09 21 42.36 20.82 42.37 48.31 23.44 64.14 12.55 45.7 1.13"/></g></g></svg>